<svg id="visual" viewBox="0 0 900 600" width="900" height="600" xmlns="http://www.w3.org/2000/svg" xmlns:xlink="http://www.w3.org/1999/xlink" version="1.1"><rect width="900" height="600" fill="#ffffff"></rect><g><g transform="translate(471 297)"><path d="M147.2 -170C191.8 -137.9 229.9 -92.6 239.3 -41.8C248.8 9 229.5 65.2 198.4 110.3C167.2 155.3 124.2 189.3 73.5 212.1C22.8 235 -35.7 246.8 -81.5 228.2C-127.3 209.6 -160.4 160.7 -190.4 109.6C-220.4 58.4 -247.3 5 -241.2 -44.8C-235.2 -94.7 -196.2 -141.1 -150.5 -172.9C-104.8 -204.8 -52.4 -222.2 -0.6 -221.5C51.2 -220.8 102.5 -202 147.2 -170Z" fill="#E8F6FE"></path></g></g></svg>