<svg id="visual" viewBox="0 0 900 600" width="900" height="600" xmlns="http://www.w3.org/2000/svg" xmlns:xlink="http://www.w3.org/1999/xlink" version="1.1"><rect x="0" y="0" width="900" height="600" fill="#E8F6FE"></rect><path d="M0 204L21.5 202.7C43 201.3 86 198.7 128.8 189.3C171.7 180 214.3 164 257.2 143.8C300 123.7 343 99.3 385.8 111.2C428.7 123 471.3 171 514.2 181C557 191 600 163 642.8 154C685.7 145 728.3 155 771.2 168C814 181 857 197 878.5 205L900 213L900 0L878.5 0C857 0 814 0 771.2 0C728.3 0 685.7 0 642.8 0C600 0 557 0 514.2 0C471.3 0 428.7 0 385.8 0C343 0 300 0 257.2 0C214.3 0 171.7 0 128.8 0C86 0 43 0 21.5 0L0 0Z" fill="#FFFFFF" stroke-linecap="round" stroke-linejoin="miter"></path></svg>